<?xml version="1.0" standalone="no"?><!DOCTYPE svg PUBLIC "-//W3C//DTD SVG 1.1//EN" "http://www.w3.org/Graphics/SVG/1.1/DTD/svg11.dtd"><svg class="icon" width="200px" height="200.00px" viewBox="0 0 1024 1024" version="1.1" xmlns="http://www.w3.org/2000/svg"><path fill="#707070" d="M393.386667 445.610667a21.333333 21.333333 0 0 0 21.333333 21.333333h21.333333a21.333333 21.333333 0 0 0 21.333334-21.333333v-35.328a21.333333 21.333333 0 0 0-21.333334-21.333334h-21.333333a21.333333 21.333333 0 0 0-21.333333 21.333334v35.370666zM606.72 388.949333a21.333333 21.333333 0 0 1 21.333333 21.333334v35.370666a21.333333 21.333333 0 0 1-21.333333 21.333334h-21.333333a21.333333 21.333333 0 0 1-21.333334-21.333334v-35.370666a21.333333 21.333333 0 0 1 21.333334-21.333334h21.333333zM355.712 601.984c-5.632-12.8 4.565333-25.984 18.517333-25.984h26.026667a24.32 24.32 0 0 1 20.352 12.373333 106.624 106.624 0 0 0 182.784 0 24.32 24.32 0 0 1 20.352-12.373333h26.026667c13.952 0 24.149333 13.226667 18.517333 25.984a170.709333 170.709333 0 0 1-312.576 0zM853.333333 512a341.333333 341.333333 0 1 1-682.666666 0 341.333333 341.333333 0 0 1 682.666666 0zM234.666667 512a277.333333 277.333333 0 1 0 554.666666 0 277.333333 277.333333 0 0 0-554.666666 0z" /></svg>